# xmcd
#
# Track frame offsets:
#	150
#	20112
#	38147
#	57045
#	76175
#	93085
#	109590
#	123387
#	145797
#	166625
#
# Disc length: 2442 seconds
#
# Revision: 6
# Processed by: cddbd v1.5.2PL0 Copyright (c) Steve Scherf et al.
# Submitted via: EasyCDDAExtractor 15.3.0.1
#
DISCID=6f09880a
DTITLE=Gloria Estefan - Eyes Of Innocence
DYEAR=1984
DGENRE=Pop
TTITLE0=Dr. Beat
TTITLE1=Prisoner Of Love
TTITLE2=Ok
TTITLE3=Love Me
TTITLE4=Orange Express
TTITLE5=I Need A Man
TTITLE6=Eyes Of Innocence
TTITLE7=When Someone Comes Into Your Life
TTITLE8=I Need Your Love
TTITLE9=Do You Want To Dance
EXTD=
EXTT0=
EXTT1=
EXTT2=
EXTT3=
EXTT4=
EXTT5=
EXTT6=
EXTT7=
EXTT8=
EXTT9=
PLAYORDER=
